<svg width="511" height="97" viewBox="0 0 511 97" xmlns="http://www.w3.org/2000/svg" aria-label="vivo·keep" role="img">
  <circle cx="8" cy="8" r="1.8" fill="#2a3555"/>
  <circle cx="17" cy="8" r="1.8" fill="#2a3555"/>
  <circle cx="26" cy="8" r="1.8" fill="#2a3555"/>
  <circle cx="35" cy="8" r="1.8" fill="#2a3555"/>
  <circle cx="44" cy="8" r="1.8" fill="#2a3555"/>
  <circle cx="53" cy="8" r="1.8" fill="#2a3555"/>
  <circle cx="62" cy="8" r="1.8" fill="#2a3555"/>
  <circle cx="71" cy="8" r="1.8" fill="#2a3555"/>
  <circle cx="80" cy="8" r="1.8" fill="#2a3555"/>
  <circle cx="89" cy="8" r="1.8" fill="#2a3555"/>
  <circle cx="98" cy="8" r="1.8" fill="#2a3555"/>
  <circle cx="107" cy="8" r="1.8" fill="#2a3555"/>
  <circle cx="116" cy="8" r="1.8" fill="#2a3555"/>
  <circle cx="125" cy="8" r="1.8" fill="#2a3555"/>
  <circle cx="134" cy="8" r="1.8" fill="#2a3555"/>
  <circle cx="143" cy="8" r="1.8" fill="#2a3555"/>
  <circle cx="152" cy="8" r="1.8" fill="#2a3555"/>
  <circle cx="161" cy="8" r="1.8" fill="#2a3555"/>
  <circle cx="170" cy="8" r="1.8" fill="#2a3555"/>
  <circle cx="179" cy="8" r="1.8" fill="#2a3555"/>
  <circle cx="188" cy="8" r="1.8" fill="#2a3555"/>
  <circle cx="197" cy="8" r="1.8" fill="#2a3555"/>
  <circle cx="206" cy="8" r="1.8" fill="#2a3555"/>
  <circle cx="215" cy="8" r="1.8" fill="#2a3555"/>
  <circle cx="224" cy="8" r="1.8" fill="#2a3555"/>
  <circle cx="233" cy="8" r="1.8" fill="#2a3555"/>
  <circle cx="242" cy="8" r="1.8" fill="#2a3555"/>
  <circle cx="251" cy="8" r="1.8" fill="#2a3555"/>
  <circle cx="260" cy="8" r="1.8" fill="#2a3555"/>
  <circle cx="269" cy="8" r="1.8" fill="#2a3555"/>
  <circle cx="278" cy="8" r="1.8" fill="#2a3555"/>
  <circle cx="287" cy="8" r="1.8" fill="#2a3555"/>
  <circle cx="296" cy="8" r="1.8" fill="#2a3555"/>
  <circle cx="305" cy="8" r="1.8" fill="#2a3555"/>
  <circle cx="314" cy="8" r="1.8" fill="#2a3555"/>
  <circle cx="323" cy="8" r="1.8" fill="#2a3555"/>
  <circle cx="332" cy="8" r="1.8" fill="#2a3555"/>
  <circle cx="341" cy="8" r="1.8" fill="#2a3555"/>
  <circle cx="350" cy="8" r="1.8" fill="#2a3555"/>
  <circle cx="359" cy="8" r="1.8" fill="#2a3555"/>
  <circle cx="368" cy="8" r="1.8" fill="#2a3555"/>
  <circle cx="377" cy="8" r="1.8" fill="#2a3555"/>
  <circle cx="386" cy="8" r="1.8" fill="#2a3555"/>
  <circle cx="395" cy="8" r="1.8" fill="#2a3555"/>
  <circle cx="404" cy="8" r="1.8" fill="#2a3555"/>
  <circle cx="413" cy="8" r="1.8" fill="#2a3555"/>
  <circle cx="422" cy="8" r="1.8" fill="#2a3555"/>
  <circle cx="431" cy="8" r="1.8" fill="#2a3555"/>
  <circle cx="440" cy="8" r="1.8" fill="#2a3555"/>
  <circle cx="449" cy="8" r="1.8" fill="#2a3555"/>
  <circle cx="458" cy="8" r="1.8" fill="#2a3555"/>
  <circle cx="467" cy="8" r="1.8" fill="#2a3555"/>
  <circle cx="476" cy="8" r="1.8" fill="#2a3555"/>
  <circle cx="485" cy="8" r="1.8" fill="#2a3555"/>
  <circle cx="494" cy="8" r="1.8" fill="#2a3555"/>
  <circle cx="8" cy="17" r="1.8" fill="#2a3555"/>
  <circle cx="17" cy="17" r="1.8" fill="#2a3555"/>
  <circle cx="26" cy="17" r="3.2" fill="#f1f5f9"/>
  <circle cx="35" cy="17" r="1.8" fill="#2a3555"/>
  <circle cx="44" cy="17" r="1.8" fill="#2a3555"/>
  <circle cx="53" cy="17" r="1.8" fill="#2a3555"/>
  <circle cx="62" cy="17" r="3.2" fill="#f1f5f9"/>
  <circle cx="71" cy="17" r="1.8" fill="#2a3555"/>
  <circle cx="80" cy="17" r="3.2" fill="#f1f5f9"/>
  <circle cx="89" cy="17" r="3.2" fill="#f1f5f9"/>
  <circle cx="98" cy="17" r="3.2" fill="#f1f5f9"/>
  <circle cx="107" cy="17" r="3.2" fill="#f1f5f9"/>
  <circle cx="116" cy="17" r="3.2" fill="#f1f5f9"/>
  <circle cx="125" cy="17" r="1.8" fill="#2a3555"/>
  <circle cx="134" cy="17" r="3.2" fill="#f1f5f9"/>
  <circle cx="143" cy="17" r="1.8" fill="#2a3555"/>
  <circle cx="152" cy="17" r="1.8" fill="#2a3555"/>
  <circle cx="161" cy="17" r="1.8" fill="#2a3555"/>
  <circle cx="170" cy="17" r="3.2" fill="#f1f5f9"/>
  <circle cx="179" cy="17" r="1.8" fill="#2a3555"/>
  <circle cx="188" cy="17" r="1.8" fill="#2a3555"/>
  <circle cx="197" cy="17" r="3.2" fill="#f1f5f9"/>
  <circle cx="206" cy="17" r="3.2" fill="#f1f5f9"/>
  <circle cx="215" cy="17" r="3.2" fill="#f1f5f9"/>
  <circle cx="224" cy="17" r="1.8" fill="#2a3555"/>
  <circle cx="233" cy="17" r="1.8" fill="#2a3555"/>
  <circle cx="242" cy="17" r="1.8" fill="#2a3555"/>
  <circle cx="251" cy="17" r="1.8" fill="#2a3555"/>
  <circle cx="260" cy="17" r="1.8" fill="#2a3555"/>
  <circle cx="269" cy="17" r="1.8" fill="#2a3555"/>
  <circle cx="278" cy="17" r="3.2" fill="#34d399"/>
  <circle cx="287" cy="17" r="1.8" fill="#2a3555"/>
  <circle cx="296" cy="17" r="1.8" fill="#2a3555"/>
  <circle cx="305" cy="17" r="1.8" fill="#2a3555"/>
  <circle cx="314" cy="17" r="3.2" fill="#34d399"/>
  <circle cx="323" cy="17" r="1.8" fill="#2a3555"/>
  <circle cx="332" cy="17" r="3.2" fill="#34d399"/>
  <circle cx="341" cy="17" r="3.2" fill="#34d399"/>
  <circle cx="350" cy="17" r="3.2" fill="#34d399"/>
  <circle cx="359" cy="17" r="3.2" fill="#34d399"/>
  <circle cx="368" cy="17" r="3.2" fill="#34d399"/>
  <circle cx="377" cy="17" r="1.8" fill="#2a3555"/>
  <circle cx="386" cy="17" r="3.2" fill="#34d399"/>
  <circle cx="395" cy="17" r="3.2" fill="#34d399"/>
  <circle cx="404" cy="17" r="3.2" fill="#34d399"/>
  <circle cx="413" cy="17" r="3.2" fill="#34d399"/>
  <circle cx="422" cy="17" r="3.2" fill="#34d399"/>
  <circle cx="431" cy="17" r="1.8" fill="#2a3555"/>
  <circle cx="440" cy="17" r="3.2" fill="#34d399"/>
  <circle cx="449" cy="17" r="3.2" fill="#34d399"/>
  <circle cx="458" cy="17" r="3.2" fill="#34d399"/>
  <circle cx="467" cy="17" r="3.2" fill="#34d399"/>
  <circle cx="476" cy="17" r="1.8" fill="#2a3555"/>
  <circle cx="485" cy="17" r="1.8" fill="#2a3555"/>
  <circle cx="494" cy="17" r="1.8" fill="#2a3555"/>
  <circle cx="8" cy="26" r="1.8" fill="#2a3555"/>
  <circle cx="17" cy="26" r="1.8" fill="#2a3555"/>
  <circle cx="26" cy="26" r="3.2" fill="#f1f5f9"/>
  <circle cx="35" cy="26" r="1.8" fill="#2a3555"/>
  <circle cx="44" cy="26" r="1.8" fill="#2a3555"/>
  <circle cx="53" cy="26" r="1.8" fill="#2a3555"/>
  <circle cx="62" cy="26" r="3.2" fill="#f1f5f9"/>
  <circle cx="71" cy="26" r="1.8" fill="#2a3555"/>
  <circle cx="80" cy="26" r="1.8" fill="#2a3555"/>
  <circle cx="89" cy="26" r="1.8" fill="#2a3555"/>
  <circle cx="98" cy="26" r="3.2" fill="#f1f5f9"/>
  <circle cx="107" cy="26" r="1.8" fill="#2a3555"/>
  <circle cx="116" cy="26" r="1.8" fill="#2a3555"/>
  <circle cx="125" cy="26" r="1.8" fill="#2a3555"/>
  <circle cx="134" cy="26" r="3.2" fill="#f1f5f9"/>
  <circle cx="143" cy="26" r="1.8" fill="#2a3555"/>
  <circle cx="152" cy="26" r="1.8" fill="#2a3555"/>
  <circle cx="161" cy="26" r="1.8" fill="#2a3555"/>
  <circle cx="170" cy="26" r="3.2" fill="#f1f5f9"/>
  <circle cx="179" cy="26" r="1.8" fill="#2a3555"/>
  <circle cx="188" cy="26" r="3.2" fill="#f1f5f9"/>
  <circle cx="197" cy="26" r="1.8" fill="#2a3555"/>
  <circle cx="206" cy="26" r="1.8" fill="#2a3555"/>
  <circle cx="215" cy="26" r="1.8" fill="#2a3555"/>
  <circle cx="224" cy="26" r="3.2" fill="#f1f5f9"/>
  <circle cx="233" cy="26" r="1.8" fill="#2a3555"/>
  <circle cx="242" cy="26" r="1.8" fill="#2a3555"/>
  <circle cx="251" cy="26" r="1.8" fill="#2a3555"/>
  <circle cx="260" cy="26" r="1.8" fill="#2a3555"/>
  <circle cx="269" cy="26" r="1.8" fill="#2a3555"/>
  <circle cx="278" cy="26" r="3.2" fill="#34d399"/>
  <circle cx="287" cy="26" r="1.8" fill="#2a3555"/>
  <circle cx="296" cy="26" r="1.8" fill="#2a3555"/>
  <circle cx="305" cy="26" r="3.2" fill="#34d399"/>
  <circle cx="314" cy="26" r="1.8" fill="#2a3555"/>
  <circle cx="323" cy="26" r="1.8" fill="#2a3555"/>
  <circle cx="332" cy="26" r="3.2" fill="#34d399"/>
  <circle cx="341" cy="26" r="1.8" fill="#2a3555"/>
  <circle cx="350" cy="26" r="1.8" fill="#2a3555"/>
  <circle cx="359" cy="26" r="1.8" fill="#2a3555"/>
  <circle cx="368" cy="26" r="1.8" fill="#2a3555"/>
  <circle cx="377" cy="26" r="1.8" fill="#2a3555"/>
  <circle cx="386" cy="26" r="3.2" fill="#34d399"/>
  <circle cx="395" cy="26" r="1.8" fill="#2a3555"/>
  <circle cx="404" cy="26" r="1.8" fill="#2a3555"/>
  <circle cx="413" cy="26" r="1.8" fill="#2a3555"/>
  <circle cx="422" cy="26" r="1.8" fill="#2a3555"/>
  <circle cx="431" cy="26" r="1.8" fill="#2a3555"/>
  <circle cx="440" cy="26" r="3.2" fill="#34d399"/>
  <circle cx="449" cy="26" r="1.8" fill="#2a3555"/>
  <circle cx="458" cy="26" r="1.8" fill="#2a3555"/>
  <circle cx="467" cy="26" r="1.8" fill="#2a3555"/>
  <circle cx="476" cy="26" r="3.2" fill="#34d399"/>
  <circle cx="485" cy="26" r="1.8" fill="#2a3555"/>
  <circle cx="494" cy="26" r="1.8" fill="#2a3555"/>
  <circle cx="8" cy="35" r="1.8" fill="#2a3555"/>
  <circle cx="17" cy="35" r="1.8" fill="#2a3555"/>
  <circle cx="26" cy="35" r="3.2" fill="#f1f5f9"/>
  <circle cx="35" cy="35" r="1.8" fill="#2a3555"/>
  <circle cx="44" cy="35" r="1.8" fill="#2a3555"/>
  <circle cx="53" cy="35" r="1.8" fill="#2a3555"/>
  <circle cx="62" cy="35" r="3.2" fill="#f1f5f9"/>
  <circle cx="71" cy="35" r="1.8" fill="#2a3555"/>
  <circle cx="80" cy="35" r="1.8" fill="#2a3555"/>
  <circle cx="89" cy="35" r="1.8" fill="#2a3555"/>
  <circle cx="98" cy="35" r="3.2" fill="#f1f5f9"/>
  <circle cx="107" cy="35" r="1.8" fill="#2a3555"/>
  <circle cx="116" cy="35" r="1.8" fill="#2a3555"/>
  <circle cx="125" cy="35" r="1.8" fill="#2a3555"/>
  <circle cx="134" cy="35" r="3.2" fill="#f1f5f9"/>
  <circle cx="143" cy="35" r="1.8" fill="#2a3555"/>
  <circle cx="152" cy="35" r="1.8" fill="#2a3555"/>
  <circle cx="161" cy="35" r="1.8" fill="#2a3555"/>
  <circle cx="170" cy="35" r="3.2" fill="#f1f5f9"/>
  <circle cx="179" cy="35" r="1.8" fill="#2a3555"/>
  <circle cx="188" cy="35" r="3.2" fill="#f1f5f9"/>
  <circle cx="197" cy="35" r="1.8" fill="#2a3555"/>
  <circle cx="206" cy="35" r="1.8" fill="#2a3555"/>
  <circle cx="215" cy="35" r="1.8" fill="#2a3555"/>
  <circle cx="224" cy="35" r="3.2" fill="#f1f5f9"/>
  <circle cx="233" cy="35" r="1.8" fill="#2a3555"/>
  <circle cx="242" cy="35" r="1.8" fill="#2a3555"/>
  <circle cx="251" cy="35" r="1.8" fill="#2a3555"/>
  <circle cx="260" cy="35" r="1.8" fill="#2a3555"/>
  <circle cx="269" cy="35" r="1.8" fill="#2a3555"/>
  <circle cx="278" cy="35" r="3.2" fill="#34d399"/>
  <circle cx="287" cy="35" r="1.8" fill="#2a3555"/>
  <circle cx="296" cy="35" r="3.2" fill="#34d399"/>
  <circle cx="305" cy="35" r="1.8" fill="#2a3555"/>
  <circle cx="314" cy="35" r="1.8" fill="#2a3555"/>
  <circle cx="323" cy="35" r="1.8" fill="#2a3555"/>
  <circle cx="332" cy="35" r="3.2" fill="#34d399"/>
  <circle cx="341" cy="35" r="1.8" fill="#2a3555"/>
  <circle cx="350" cy="35" r="1.8" fill="#2a3555"/>
  <circle cx="359" cy="35" r="1.8" fill="#2a3555"/>
  <circle cx="368" cy="35" r="1.8" fill="#2a3555"/>
  <circle cx="377" cy="35" r="1.8" fill="#2a3555"/>
  <circle cx="386" cy="35" r="3.2" fill="#34d399"/>
  <circle cx="395" cy="35" r="1.8" fill="#2a3555"/>
  <circle cx="404" cy="35" r="1.8" fill="#2a3555"/>
  <circle cx="413" cy="35" r="1.8" fill="#2a3555"/>
  <circle cx="422" cy="35" r="1.8" fill="#2a3555"/>
  <circle cx="431" cy="35" r="1.8" fill="#2a3555"/>
  <circle cx="440" cy="35" r="3.2" fill="#34d399"/>
  <circle cx="449" cy="35" r="1.8" fill="#2a3555"/>
  <circle cx="458" cy="35" r="1.8" fill="#2a3555"/>
  <circle cx="467" cy="35" r="1.8" fill="#2a3555"/>
  <circle cx="476" cy="35" r="3.2" fill="#34d399"/>
  <circle cx="485" cy="35" r="1.8" fill="#2a3555"/>
  <circle cx="494" cy="35" r="1.8" fill="#2a3555"/>
  <circle cx="8" cy="44" r="1.8" fill="#2a3555"/>
  <circle cx="17" cy="44" r="1.8" fill="#2a3555"/>
  <circle cx="26" cy="44" r="1.8" fill="#2a3555"/>
  <circle cx="35" cy="44" r="3.2" fill="#f1f5f9"/>
  <circle cx="44" cy="44" r="1.8" fill="#2a3555"/>
  <circle cx="53" cy="44" r="3.2" fill="#f1f5f9"/>
  <circle cx="62" cy="44" r="1.8" fill="#2a3555"/>
  <circle cx="71" cy="44" r="1.8" fill="#2a3555"/>
  <circle cx="80" cy="44" r="1.8" fill="#2a3555"/>
  <circle cx="89" cy="44" r="1.8" fill="#2a3555"/>
  <circle cx="98" cy="44" r="3.2" fill="#f1f5f9"/>
  <circle cx="107" cy="44" r="1.8" fill="#2a3555"/>
  <circle cx="116" cy="44" r="1.8" fill="#2a3555"/>
  <circle cx="125" cy="44" r="1.8" fill="#2a3555"/>
  <circle cx="134" cy="44" r="1.8" fill="#2a3555"/>
  <circle cx="143" cy="44" r="3.2" fill="#f1f5f9"/>
  <circle cx="152" cy="44" r="1.8" fill="#2a3555"/>
  <circle cx="161" cy="44" r="3.2" fill="#f1f5f9"/>
  <circle cx="170" cy="44" r="1.8" fill="#2a3555"/>
  <circle cx="179" cy="44" r="1.8" fill="#2a3555"/>
  <circle cx="188" cy="44" r="3.2" fill="#f1f5f9"/>
  <circle cx="197" cy="44" r="1.8" fill="#2a3555"/>
  <circle cx="206" cy="44" r="1.8" fill="#2a3555"/>
  <circle cx="215" cy="44" r="1.8" fill="#2a3555"/>
  <circle cx="224" cy="44" r="3.2" fill="#f1f5f9"/>
  <circle cx="233" cy="44" r="1.8" fill="#2a3555"/>
  <circle cx="242" cy="44" r="1.8" fill="#2a3555"/>
  <circle cx="251" cy="44" r="3.2" fill="#34d399"/>
  <circle cx="260" cy="44" r="1.8" fill="#2a3555"/>
  <circle cx="269" cy="44" r="1.8" fill="#2a3555"/>
  <circle cx="278" cy="44" r="3.2" fill="#34d399"/>
  <circle cx="287" cy="44" r="3.2" fill="#34d399"/>
  <circle cx="296" cy="44" r="1.8" fill="#2a3555"/>
  <circle cx="305" cy="44" r="1.8" fill="#2a3555"/>
  <circle cx="314" cy="44" r="1.8" fill="#2a3555"/>
  <circle cx="323" cy="44" r="1.8" fill="#2a3555"/>
  <circle cx="332" cy="44" r="3.2" fill="#34d399"/>
  <circle cx="341" cy="44" r="3.2" fill="#34d399"/>
  <circle cx="350" cy="44" r="3.2" fill="#34d399"/>
  <circle cx="359" cy="44" r="3.2" fill="#34d399"/>
  <circle cx="368" cy="44" r="1.8" fill="#2a3555"/>
  <circle cx="377" cy="44" r="1.8" fill="#2a3555"/>
  <circle cx="386" cy="44" r="3.2" fill="#34d399"/>
  <circle cx="395" cy="44" r="3.2" fill="#34d399"/>
  <circle cx="404" cy="44" r="3.2" fill="#34d399"/>
  <circle cx="413" cy="44" r="3.2" fill="#34d399"/>
  <circle cx="422" cy="44" r="1.8" fill="#2a3555"/>
  <circle cx="431" cy="44" r="1.8" fill="#2a3555"/>
  <circle cx="440" cy="44" r="3.2" fill="#34d399"/>
  <circle cx="449" cy="44" r="3.2" fill="#34d399"/>
  <circle cx="458" cy="44" r="3.2" fill="#34d399"/>
  <circle cx="467" cy="44" r="3.2" fill="#34d399"/>
  <circle cx="476" cy="44" r="1.8" fill="#2a3555"/>
  <circle cx="485" cy="44" r="1.8" fill="#2a3555"/>
  <circle cx="494" cy="44" r="1.8" fill="#2a3555"/>
  <circle cx="8" cy="53" r="1.8" fill="#2a3555"/>
  <circle cx="17" cy="53" r="1.8" fill="#2a3555"/>
  <circle cx="26" cy="53" r="1.8" fill="#2a3555"/>
  <circle cx="35" cy="53" r="3.2" fill="#f1f5f9"/>
  <circle cx="44" cy="53" r="1.8" fill="#2a3555"/>
  <circle cx="53" cy="53" r="3.2" fill="#f1f5f9"/>
  <circle cx="62" cy="53" r="1.8" fill="#2a3555"/>
  <circle cx="71" cy="53" r="1.8" fill="#2a3555"/>
  <circle cx="80" cy="53" r="1.8" fill="#2a3555"/>
  <circle cx="89" cy="53" r="1.8" fill="#2a3555"/>
  <circle cx="98" cy="53" r="3.2" fill="#f1f5f9"/>
  <circle cx="107" cy="53" r="1.8" fill="#2a3555"/>
  <circle cx="116" cy="53" r="1.8" fill="#2a3555"/>
  <circle cx="125" cy="53" r="1.8" fill="#2a3555"/>
  <circle cx="134" cy="53" r="1.8" fill="#2a3555"/>
  <circle cx="143" cy="53" r="3.2" fill="#f1f5f9"/>
  <circle cx="152" cy="53" r="1.8" fill="#2a3555"/>
  <circle cx="161" cy="53" r="3.2" fill="#f1f5f9"/>
  <circle cx="170" cy="53" r="1.8" fill="#2a3555"/>
  <circle cx="179" cy="53" r="1.8" fill="#2a3555"/>
  <circle cx="188" cy="53" r="3.2" fill="#f1f5f9"/>
  <circle cx="197" cy="53" r="1.8" fill="#2a3555"/>
  <circle cx="206" cy="53" r="1.8" fill="#2a3555"/>
  <circle cx="215" cy="53" r="1.8" fill="#2a3555"/>
  <circle cx="224" cy="53" r="3.2" fill="#f1f5f9"/>
  <circle cx="233" cy="53" r="1.8" fill="#2a3555"/>
  <circle cx="242" cy="53" r="1.8" fill="#2a3555"/>
  <circle cx="251" cy="53" r="1.8" fill="#2a3555"/>
  <circle cx="260" cy="53" r="1.8" fill="#2a3555"/>
  <circle cx="269" cy="53" r="1.8" fill="#2a3555"/>
  <circle cx="278" cy="53" r="3.2" fill="#34d399"/>
  <circle cx="287" cy="53" r="1.8" fill="#2a3555"/>
  <circle cx="296" cy="53" r="3.2" fill="#34d399"/>
  <circle cx="305" cy="53" r="1.8" fill="#2a3555"/>
  <circle cx="314" cy="53" r="1.8" fill="#2a3555"/>
  <circle cx="323" cy="53" r="1.8" fill="#2a3555"/>
  <circle cx="332" cy="53" r="3.2" fill="#34d399"/>
  <circle cx="341" cy="53" r="1.8" fill="#2a3555"/>
  <circle cx="350" cy="53" r="1.8" fill="#2a3555"/>
  <circle cx="359" cy="53" r="1.8" fill="#2a3555"/>
  <circle cx="368" cy="53" r="1.8" fill="#2a3555"/>
  <circle cx="377" cy="53" r="1.8" fill="#2a3555"/>
  <circle cx="386" cy="53" r="3.2" fill="#34d399"/>
  <circle cx="395" cy="53" r="1.8" fill="#2a3555"/>
  <circle cx="404" cy="53" r="1.8" fill="#2a3555"/>
  <circle cx="413" cy="53" r="1.8" fill="#2a3555"/>
  <circle cx="422" cy="53" r="1.8" fill="#2a3555"/>
  <circle cx="431" cy="53" r="1.8" fill="#2a3555"/>
  <circle cx="440" cy="53" r="3.2" fill="#34d399"/>
  <circle cx="449" cy="53" r="1.8" fill="#2a3555"/>
  <circle cx="458" cy="53" r="1.8" fill="#2a3555"/>
  <circle cx="467" cy="53" r="1.8" fill="#2a3555"/>
  <circle cx="476" cy="53" r="1.8" fill="#2a3555"/>
  <circle cx="485" cy="53" r="1.8" fill="#2a3555"/>
  <circle cx="494" cy="53" r="1.8" fill="#2a3555"/>
  <circle cx="8" cy="62" r="1.8" fill="#2a3555"/>
  <circle cx="17" cy="62" r="1.8" fill="#2a3555"/>
  <circle cx="26" cy="62" r="1.8" fill="#2a3555"/>
  <circle cx="35" cy="62" r="1.8" fill="#2a3555"/>
  <circle cx="44" cy="62" r="3.2" fill="#f1f5f9"/>
  <circle cx="53" cy="62" r="1.8" fill="#2a3555"/>
  <circle cx="62" cy="62" r="1.8" fill="#2a3555"/>
  <circle cx="71" cy="62" r="1.8" fill="#2a3555"/>
  <circle cx="80" cy="62" r="1.8" fill="#2a3555"/>
  <circle cx="89" cy="62" r="1.8" fill="#2a3555"/>
  <circle cx="98" cy="62" r="3.2" fill="#f1f5f9"/>
  <circle cx="107" cy="62" r="1.8" fill="#2a3555"/>
  <circle cx="116" cy="62" r="1.8" fill="#2a3555"/>
  <circle cx="125" cy="62" r="1.8" fill="#2a3555"/>
  <circle cx="134" cy="62" r="1.8" fill="#2a3555"/>
  <circle cx="143" cy="62" r="1.8" fill="#2a3555"/>
  <circle cx="152" cy="62" r="3.2" fill="#f1f5f9"/>
  <circle cx="161" cy="62" r="1.8" fill="#2a3555"/>
  <circle cx="170" cy="62" r="1.8" fill="#2a3555"/>
  <circle cx="179" cy="62" r="1.8" fill="#2a3555"/>
  <circle cx="188" cy="62" r="3.2" fill="#f1f5f9"/>
  <circle cx="197" cy="62" r="1.8" fill="#2a3555"/>
  <circle cx="206" cy="62" r="1.8" fill="#2a3555"/>
  <circle cx="215" cy="62" r="1.8" fill="#2a3555"/>
  <circle cx="224" cy="62" r="3.2" fill="#f1f5f9"/>
  <circle cx="233" cy="62" r="1.8" fill="#2a3555"/>
  <circle cx="242" cy="62" r="1.8" fill="#2a3555"/>
  <circle cx="251" cy="62" r="1.8" fill="#2a3555"/>
  <circle cx="260" cy="62" r="1.8" fill="#2a3555"/>
  <circle cx="269" cy="62" r="1.8" fill="#2a3555"/>
  <circle cx="278" cy="62" r="3.2" fill="#34d399"/>
  <circle cx="287" cy="62" r="1.8" fill="#2a3555"/>
  <circle cx="296" cy="62" r="1.8" fill="#2a3555"/>
  <circle cx="305" cy="62" r="3.2" fill="#34d399"/>
  <circle cx="314" cy="62" r="1.8" fill="#2a3555"/>
  <circle cx="323" cy="62" r="1.8" fill="#2a3555"/>
  <circle cx="332" cy="62" r="3.2" fill="#34d399"/>
  <circle cx="341" cy="62" r="1.8" fill="#2a3555"/>
  <circle cx="350" cy="62" r="1.8" fill="#2a3555"/>
  <circle cx="359" cy="62" r="1.8" fill="#2a3555"/>
  <circle cx="368" cy="62" r="1.8" fill="#2a3555"/>
  <circle cx="377" cy="62" r="1.8" fill="#2a3555"/>
  <circle cx="386" cy="62" r="3.2" fill="#34d399"/>
  <circle cx="395" cy="62" r="1.8" fill="#2a3555"/>
  <circle cx="404" cy="62" r="1.8" fill="#2a3555"/>
  <circle cx="413" cy="62" r="1.8" fill="#2a3555"/>
  <circle cx="422" cy="62" r="1.8" fill="#2a3555"/>
  <circle cx="431" cy="62" r="1.8" fill="#2a3555"/>
  <circle cx="440" cy="62" r="3.2" fill="#34d399"/>
  <circle cx="449" cy="62" r="1.8" fill="#2a3555"/>
  <circle cx="458" cy="62" r="1.8" fill="#2a3555"/>
  <circle cx="467" cy="62" r="1.8" fill="#2a3555"/>
  <circle cx="476" cy="62" r="1.8" fill="#2a3555"/>
  <circle cx="485" cy="62" r="1.8" fill="#2a3555"/>
  <circle cx="494" cy="62" r="1.8" fill="#2a3555"/>
  <circle cx="8" cy="71" r="1.8" fill="#2a3555"/>
  <circle cx="17" cy="71" r="1.8" fill="#2a3555"/>
  <circle cx="26" cy="71" r="1.8" fill="#2a3555"/>
  <circle cx="35" cy="71" r="1.8" fill="#2a3555"/>
  <circle cx="44" cy="71" r="3.2" fill="#f1f5f9"/>
  <circle cx="53" cy="71" r="1.8" fill="#2a3555"/>
  <circle cx="62" cy="71" r="1.8" fill="#2a3555"/>
  <circle cx="71" cy="71" r="1.8" fill="#2a3555"/>
  <circle cx="80" cy="71" r="3.2" fill="#f1f5f9"/>
  <circle cx="89" cy="71" r="3.2" fill="#f1f5f9"/>
  <circle cx="98" cy="71" r="3.2" fill="#f1f5f9"/>
  <circle cx="107" cy="71" r="3.2" fill="#f1f5f9"/>
  <circle cx="116" cy="71" r="3.2" fill="#f1f5f9"/>
  <circle cx="125" cy="71" r="1.8" fill="#2a3555"/>
  <circle cx="134" cy="71" r="1.8" fill="#2a3555"/>
  <circle cx="143" cy="71" r="1.8" fill="#2a3555"/>
  <circle cx="152" cy="71" r="3.2" fill="#f1f5f9"/>
  <circle cx="161" cy="71" r="1.8" fill="#2a3555"/>
  <circle cx="170" cy="71" r="1.8" fill="#2a3555"/>
  <circle cx="179" cy="71" r="1.8" fill="#2a3555"/>
  <circle cx="188" cy="71" r="1.8" fill="#2a3555"/>
  <circle cx="197" cy="71" r="3.2" fill="#f1f5f9"/>
  <circle cx="206" cy="71" r="3.2" fill="#f1f5f9"/>
  <circle cx="215" cy="71" r="3.2" fill="#f1f5f9"/>
  <circle cx="224" cy="71" r="1.8" fill="#2a3555"/>
  <circle cx="233" cy="71" r="1.8" fill="#2a3555"/>
  <circle cx="242" cy="71" r="1.8" fill="#2a3555"/>
  <circle cx="251" cy="71" r="1.8" fill="#2a3555"/>
  <circle cx="260" cy="71" r="1.8" fill="#2a3555"/>
  <circle cx="269" cy="71" r="1.8" fill="#2a3555"/>
  <circle cx="278" cy="71" r="3.2" fill="#34d399"/>
  <circle cx="287" cy="71" r="1.8" fill="#2a3555"/>
  <circle cx="296" cy="71" r="1.8" fill="#2a3555"/>
  <circle cx="305" cy="71" r="1.8" fill="#2a3555"/>
  <circle cx="314" cy="71" r="3.2" fill="#34d399"/>
  <circle cx="323" cy="71" r="1.8" fill="#2a3555"/>
  <circle cx="332" cy="71" r="3.2" fill="#34d399"/>
  <circle cx="341" cy="71" r="3.2" fill="#34d399"/>
  <circle cx="350" cy="71" r="3.2" fill="#34d399"/>
  <circle cx="359" cy="71" r="3.2" fill="#34d399"/>
  <circle cx="368" cy="71" r="3.2" fill="#34d399"/>
  <circle cx="377" cy="71" r="1.8" fill="#2a3555"/>
  <circle cx="386" cy="71" r="3.2" fill="#34d399"/>
  <circle cx="395" cy="71" r="3.2" fill="#34d399"/>
  <circle cx="404" cy="71" r="3.2" fill="#34d399"/>
  <circle cx="413" cy="71" r="3.2" fill="#34d399"/>
  <circle cx="422" cy="71" r="3.2" fill="#34d399"/>
  <circle cx="431" cy="71" r="1.8" fill="#2a3555"/>
  <circle cx="440" cy="71" r="3.2" fill="#34d399"/>
  <circle cx="449" cy="71" r="1.8" fill="#2a3555"/>
  <circle cx="458" cy="71" r="1.8" fill="#2a3555"/>
  <circle cx="467" cy="71" r="1.8" fill="#2a3555"/>
  <circle cx="476" cy="71" r="1.8" fill="#2a3555"/>
  <circle cx="485" cy="71" r="1.8" fill="#2a3555"/>
  <circle cx="494" cy="71" r="1.8" fill="#2a3555"/>
  <circle cx="8" cy="80" r="1.8" fill="#2a3555"/>
  <circle cx="17" cy="80" r="1.8" fill="#2a3555"/>
  <circle cx="26" cy="80" r="1.8" fill="#2a3555"/>
  <circle cx="35" cy="80" r="1.8" fill="#2a3555"/>
  <circle cx="44" cy="80" r="1.8" fill="#2a3555"/>
  <circle cx="53" cy="80" r="1.8" fill="#2a3555"/>
  <circle cx="62" cy="80" r="1.8" fill="#2a3555"/>
  <circle cx="71" cy="80" r="1.8" fill="#2a3555"/>
  <circle cx="80" cy="80" r="1.8" fill="#2a3555"/>
  <circle cx="89" cy="80" r="1.8" fill="#2a3555"/>
  <circle cx="98" cy="80" r="1.8" fill="#2a3555"/>
  <circle cx="107" cy="80" r="1.8" fill="#2a3555"/>
  <circle cx="116" cy="80" r="1.8" fill="#2a3555"/>
  <circle cx="125" cy="80" r="1.8" fill="#2a3555"/>
  <circle cx="134" cy="80" r="1.8" fill="#2a3555"/>
  <circle cx="143" cy="80" r="1.8" fill="#2a3555"/>
  <circle cx="152" cy="80" r="1.8" fill="#2a3555"/>
  <circle cx="161" cy="80" r="1.8" fill="#2a3555"/>
  <circle cx="170" cy="80" r="1.8" fill="#2a3555"/>
  <circle cx="179" cy="80" r="1.8" fill="#2a3555"/>
  <circle cx="188" cy="80" r="1.8" fill="#2a3555"/>
  <circle cx="197" cy="80" r="1.8" fill="#2a3555"/>
  <circle cx="206" cy="80" r="1.8" fill="#2a3555"/>
  <circle cx="215" cy="80" r="1.8" fill="#2a3555"/>
  <circle cx="224" cy="80" r="1.8" fill="#2a3555"/>
  <circle cx="233" cy="80" r="1.8" fill="#2a3555"/>
  <circle cx="242" cy="80" r="1.8" fill="#2a3555"/>
  <circle cx="251" cy="80" r="1.8" fill="#2a3555"/>
  <circle cx="260" cy="80" r="1.8" fill="#2a3555"/>
  <circle cx="269" cy="80" r="1.8" fill="#2a3555"/>
  <circle cx="278" cy="80" r="1.8" fill="#2a3555"/>
  <circle cx="287" cy="80" r="1.8" fill="#2a3555"/>
  <circle cx="296" cy="80" r="1.8" fill="#2a3555"/>
  <circle cx="305" cy="80" r="1.8" fill="#2a3555"/>
  <circle cx="314" cy="80" r="1.8" fill="#2a3555"/>
  <circle cx="323" cy="80" r="1.8" fill="#2a3555"/>
  <circle cx="332" cy="80" r="1.8" fill="#2a3555"/>
  <circle cx="341" cy="80" r="1.8" fill="#2a3555"/>
  <circle cx="350" cy="80" r="1.8" fill="#2a3555"/>
  <circle cx="359" cy="80" r="1.8" fill="#2a3555"/>
  <circle cx="368" cy="80" r="1.8" fill="#2a3555"/>
  <circle cx="377" cy="80" r="1.8" fill="#2a3555"/>
  <circle cx="386" cy="80" r="1.8" fill="#2a3555"/>
  <circle cx="395" cy="80" r="1.8" fill="#2a3555"/>
  <circle cx="404" cy="80" r="1.8" fill="#2a3555"/>
  <circle cx="413" cy="80" r="1.8" fill="#2a3555"/>
  <circle cx="422" cy="80" r="1.8" fill="#2a3555"/>
  <circle cx="431" cy="80" r="1.8" fill="#2a3555"/>
  <circle cx="440" cy="80" r="1.8" fill="#2a3555"/>
  <circle cx="449" cy="80" r="1.8" fill="#2a3555"/>
  <circle cx="458" cy="80" r="1.8" fill="#2a3555"/>
  <circle cx="467" cy="80" r="1.8" fill="#2a3555"/>
  <circle cx="476" cy="80" r="1.8" fill="#2a3555"/>
  <circle cx="485" cy="80" r="1.8" fill="#2a3555"/>
  <circle cx="494" cy="80" r="1.8" fill="#2a3555"/>
</svg>